<svg width="618" height="546" viewBox="0 0 618 546" fill="none" xmlns="http://www.w3.org/2000/svg">
<g clip-path="url(#clip0_4_8)">
<path d="M550.774 0H74.6111C63.5029 0 54.4979 8.96288 54.4979 20.0191V372.332C54.4979 383.388 63.5029 392.351 74.6111 392.351H550.774C561.882 392.351 570.887 383.388 570.887 372.332V20.0191C570.887 8.96288 561.882 0 550.774 0Z" fill="#D7D7D8"/>
<path d="M74.6111 4.59998C66.0704 4.59998 59.1195 11.5184 59.1195 20.0191V372.323C59.1195 380.824 66.0704 387.742 74.6111 387.742H550.774C559.315 387.742 566.266 380.824 566.266 372.323V20.0191C566.266 11.5184 559.315 4.59998 550.774 4.59998H74.6111Z" fill="white"/>
<path d="M314.527 2.34601H310.839V390.438H314.527V2.34601Z" fill="#D7D7D8"/>
<path d="M290.763 65.5314C293.647 65.5314 295.986 63.2042 295.986 60.3334C295.986 57.4627 293.647 55.1354 290.763 55.1354C287.879 55.1354 285.541 57.4627 285.541 60.3334C285.541 63.2042 287.879 65.5314 290.763 65.5314Z" fill="#D7D7D8"/>
<path d="M334.613 65.5314C337.497 65.5314 339.835 63.2042 339.835 60.3334C339.835 57.4627 337.497 55.1354 334.613 55.1354C331.729 55.1354 329.39 57.4627 329.39 60.3334C329.39 63.2042 331.729 65.5314 334.613 65.5314Z" fill="#D7D7D8"/>
<path d="M290.763 133.455C293.647 133.455 295.986 131.128 295.986 128.257C295.986 125.386 293.647 123.059 290.763 123.059C287.879 123.059 285.541 125.386 285.541 128.257C285.541 131.128 287.879 133.455 290.763 133.455Z" fill="#D7D7D8"/>
<path d="M334.613 133.455C337.497 133.455 339.835 131.128 339.835 128.257C339.835 125.386 337.497 123.059 334.613 123.059C331.729 123.059 329.39 125.386 329.39 128.257C329.39 131.128 331.729 133.455 334.613 133.455Z" fill="#D7D7D8"/>
<path d="M290.763 201.369C293.647 201.369 295.986 199.042 295.986 196.171C295.986 193.3 293.647 190.973 290.763 190.973C287.879 190.973 285.541 193.3 285.541 196.171C285.541 199.042 287.879 201.369 290.763 201.369Z" fill="#D7D7D8"/>
<path d="M334.613 201.369C337.497 201.369 339.835 199.042 339.835 196.171C339.835 193.3 337.497 190.973 334.613 190.973C331.729 190.973 329.39 193.3 329.39 196.171C329.39 199.042 331.729 201.369 334.613 201.369Z" fill="#D7D7D8"/>
<path d="M290.763 269.292C293.647 269.292 295.986 266.965 295.986 264.094C295.986 261.224 293.647 258.896 290.763 258.896C287.879 258.896 285.541 261.224 285.541 264.094C285.541 266.965 287.879 269.292 290.763 269.292Z" fill="#D7D7D8"/>
<path d="M334.613 269.292C337.497 269.292 339.835 266.965 339.835 264.094C339.835 261.224 337.497 258.896 334.613 258.896C331.729 258.896 329.39 261.224 329.39 264.094C329.39 266.965 331.729 269.292 334.613 269.292Z" fill="#D7D7D8"/>
<path d="M290.763 337.207C293.647 337.207 295.986 334.879 295.986 332.009C295.986 329.138 293.647 326.811 290.763 326.811C287.879 326.811 285.541 329.138 285.541 332.009C285.541 334.879 287.879 337.207 290.763 337.207Z" fill="#D7D7D8"/>
<path d="M334.613 337.207C337.497 337.207 339.835 334.879 339.835 332.009C339.835 329.138 337.497 326.811 334.613 326.811C331.729 326.811 329.39 329.138 329.39 332.009C329.39 334.879 331.729 337.207 334.613 337.207Z" fill="#D7D7D8"/>
<path d="M291.244 57.9322L290.273 56.3682C290.514 56.221 314.398 41.8599 335.14 56.3958L334.077 57.9046C314.333 44.0678 291.466 57.7942 291.244 57.9322Z" fill="#D7D7D8"/>
<path d="M291.244 64.3078L290.273 62.7438C290.514 62.5966 314.398 48.2355 335.14 62.7714L334.077 64.2802C314.333 50.4435 291.466 64.1698 291.244 64.3078Z" fill="#D7D7D8"/>
<path d="M291.244 126.15L290.273 124.586C290.514 124.439 314.398 110.078 335.14 124.614L334.077 126.122C314.333 112.286 291.466 126.012 291.244 126.15Z" fill="#D7D7D8"/>
<path d="M291.244 132.535L290.273 130.971C290.514 130.824 314.398 116.462 335.14 130.998L334.077 132.507C314.333 118.67 291.466 132.397 291.244 132.535Z" fill="#D7D7D8"/>
<path d="M291.244 194.368L290.273 192.804C290.514 192.657 314.398 178.295 335.14 192.831L334.077 194.34C314.333 180.503 291.466 194.23 291.244 194.368Z" fill="#D7D7D8"/>
<path d="M291.244 200.753L290.273 199.189C290.514 199.041 314.389 184.68 335.14 199.216L334.077 200.725C314.333 186.888 291.466 200.615 291.244 200.753Z" fill="#D7D7D8"/>
<path d="M291.244 262.586L290.273 261.022C290.514 260.874 314.398 246.513 335.14 261.049L334.077 262.558C314.333 248.731 291.466 262.448 291.244 262.586Z" fill="#D7D7D8"/>
<path d="M291.244 268.97L290.273 267.406C290.514 267.259 314.389 252.898 335.14 267.434L334.077 268.943C314.333 255.106 291.466 268.832 291.244 268.97Z" fill="#D7D7D8"/>
<path d="M291.244 330.803L290.273 329.239C290.514 329.092 314.398 314.731 335.14 329.267L334.077 330.767C314.333 316.93 291.466 330.656 291.244 330.794V330.803Z" fill="#D7D7D8"/>
<path d="M291.244 337.188L290.273 335.624C290.514 335.477 314.398 321.116 335.14 335.652L334.077 337.151C314.333 323.315 291.466 337.041 291.244 337.179V337.188Z" fill="#D7D7D8"/>
<path d="M429.67 102.828C429.67 102.828 410.647 104.962 409.418 134.283C408.392 158.718 406.303 172.334 416.295 177.431C419.863 179.252 424.059 179.409 427.877 178.167L468.639 164.827C468.639 164.827 469.249 120.851 455.135 110.16C441.021 99.4701 429.67 102.828 429.67 102.828Z" fill="#2F2E43"/>
<path d="M452.14 170.227L431.509 176.98V147.42H450.227L452.14 170.227Z" fill="#F3A3A6"/>
<path d="M389.074 338.016C387.955 344.787 383.417 349.645 378.943 348.863C374.46 348.081 371.743 341.954 372.861 335.183C373.268 332.469 374.349 329.902 376.004 327.703L381.115 299.073L395.026 301.971L388.51 329.883C389.37 332.524 389.564 335.311 389.074 338.016Z" fill="#F3A3A6"/>
<path d="M436.307 528.382H416.988L405.786 425.628H435.65L436.307 528.382Z" fill="#F3A3A6"/>
<path d="M398.169 544.905C396.136 544.905 394.324 544.859 392.965 544.73C387.835 544.261 382.936 540.489 380.478 538.29C379.378 537.306 379.017 535.724 379.59 534.362C380.006 533.387 380.829 532.66 381.855 532.366L395.415 528.511L417.376 513.763L417.626 514.205C417.718 514.37 419.872 518.235 420.593 520.847C420.87 521.841 420.796 522.669 420.38 523.313C420.094 523.754 419.687 524.012 419.364 524.159C419.761 524.573 421.009 525.41 424.845 526.018C430.456 526.901 431.62 521.123 431.676 520.884L431.713 520.691L431.879 520.58C434.541 518.869 436.186 518.097 436.75 518.262C437.101 518.363 437.693 518.547 439.283 534.279C439.44 534.776 440.558 538.392 439.8 541.86C438.978 545.632 422.442 544.335 419.133 544.031C419.04 544.04 406.664 544.914 398.178 544.914L398.169 544.905Z" fill="#2F2E43"/>
<path d="M479.962 528.382H460.635L449.432 425.628H479.297L479.962 528.382Z" fill="#F3A3A6"/>
<path d="M441.825 544.905C439.791 544.905 437.98 544.859 436.621 544.73C431.491 544.261 426.592 540.489 424.133 538.29C423.033 537.306 422.673 535.724 423.246 534.362C423.662 533.387 424.484 532.66 425.51 532.366L439.07 528.511L461.032 513.763L461.282 514.205C461.374 514.37 463.528 518.235 464.249 520.847C464.526 521.841 464.452 522.669 464.036 523.313C463.75 523.754 463.343 524.012 463.019 524.159C463.417 524.573 464.665 525.41 468.501 526.018C474.111 526.901 475.276 521.123 475.331 520.884L475.368 520.691L475.535 520.58C478.206 518.869 479.842 518.097 480.406 518.262C480.757 518.363 481.349 518.547 482.938 534.279C483.096 534.776 484.214 538.392 483.456 541.86C482.633 545.632 466.097 544.335 462.788 544.031C462.696 544.04 450.319 544.914 441.834 544.914L441.825 544.905Z" fill="#2F2E43"/>
<path d="M485.517 275.99H391.634L425.381 165.434H462.816L485.517 275.99Z" fill="#F74923"/>
<path d="M431.287 165.452C431.287 165.452 407.967 164.845 405.517 170.954C403.059 177.063 374.22 322.431 374.22 322.431H393.242L431.287 165.462V165.452Z" fill="#F74923"/>
<path d="M434.06 155.599C445.414 155.599 454.617 146.439 454.617 135.138C454.617 123.838 445.414 114.678 434.06 114.678C422.707 114.678 413.504 123.838 413.504 135.138C413.504 146.439 422.707 155.599 434.06 155.599Z" fill="#F3A3A6"/>
<path d="M428.441 110.464C428.441 110.464 417.127 156.188 429.707 177.56L411.988 173.815C411.988 173.815 405.12 123.776 418.929 114.678L428.441 110.464Z" fill="#2F2E43"/>
<path d="M466.005 275.99H404.39L370.68 413.704C370.061 419.519 373.767 424.947 379.442 426.465C397.938 431.396 442.324 438.379 509.494 418.921C515.955 417.053 519.625 410.264 517.6 403.87L466.005 275.99Z" fill="#2F2E43"/>
<path d="M618 544.905C618 545.512 617.51 546 616.9 546H1.09994C0.489889 546 0 545.512 0 544.905C0 544.298 0.489889 543.81 1.09994 543.81H616.9C617.51 543.81 618 544.298 618 544.905Z" fill="#2F2E43"/>
<path d="M441.095 165.434L460.256 164.597C468.556 165.222 476.062 169.712 480.507 176.713C494.049 198.02 519.384 242.925 496.766 249.08C466.948 257.185 452.501 212.059 452.501 212.059L441.095 165.434Z" fill="#F74923"/>
<path d="M423.431 181.663L470.349 147.66C470.904 147.255 471.68 147.384 472.087 147.936L473.224 149.49C473.631 150.042 473.501 150.815 472.947 151.22L426.037 185.223H426.028L419.807 187.891L419.336 187.247L423.431 181.663Z" fill="#2F2E43"/>
<path d="M434.523 178.82C430.585 173.189 430.446 166.556 434.199 164.008C437.961 161.46 444.2 163.971 448.138 169.602C449.746 171.828 450.763 174.422 451.114 177.145L467.484 201.231L455.477 208.803L440.614 184.257C438.146 182.96 436.057 181.092 434.523 178.82Z" fill="#F3A3A6"/>
<path d="M444.209 198.296L457.732 185.904L484.473 210.689L459.609 227.607L444.209 198.296Z" fill="#F74923"/>
<path d="M102.442 69.8278C121.437 69.101 140.45 68.7882 159.464 68.8986C178.477 69.009 197.176 69.5334 216.004 70.481C226.726 71.0146 237.43 71.6862 248.134 72.4958C249.918 72.6338 249.908 69.8646 248.134 69.7358C229.176 68.3098 210.19 67.307 191.186 66.7182C172.182 66.1294 153.474 65.9822 134.618 66.2306C123.887 66.3778 113.155 66.6538 102.433 67.0678C100.658 67.1322 100.649 69.8922 102.433 69.8278H102.442Z" fill="#F74923"/>
<path d="M102.442 101.053C121.437 100.326 140.45 100.013 159.464 100.123C178.477 100.234 197.176 100.758 216.004 101.706C226.726 102.239 237.43 102.911 248.134 103.72C249.918 103.858 249.908 101.089 248.134 100.961C229.176 99.5345 210.19 98.5317 191.186 97.9429C172.182 97.3541 153.474 97.2069 134.618 97.4553C123.887 97.6025 113.155 97.8785 102.433 98.2925C100.658 98.3569 100.649 101.117 102.433 101.053H102.442Z" fill="#2F2E43"/>
<path d="M102.442 132.277C117.86 131.679 133.287 130.998 148.723 130.732C161.922 130.502 175.122 130.713 188.302 131.348C197.703 131.799 207.094 132.434 216.485 133.133C218.269 133.271 218.26 130.502 216.485 130.373C201.104 129.214 185.705 128.266 170.278 127.972C157.079 127.723 143.87 128.008 130.68 128.45C121.271 128.772 111.861 129.149 102.442 129.517C100.668 129.582 100.658 132.342 102.442 132.277Z" fill="#2F2E43"/>
<path d="M102.442 163.502C118.766 162.876 135.099 162.214 151.431 161.975C166.054 161.754 180.686 161.947 195.299 162.61C205.033 163.051 214.756 163.668 224.48 164.404C226.264 164.542 226.255 161.772 224.48 161.644C208.194 160.42 191.889 159.509 175.565 159.233C160.933 158.976 146.301 159.233 131.679 159.693C121.936 159.997 112.194 160.374 102.452 160.751C100.677 160.816 100.668 163.576 102.452 163.511L102.442 163.502Z" fill="#2F2E43"/>
<path d="M102.442 194.717C117.287 194.147 132.113 193.245 146.948 192.555C159.205 191.985 171.461 191.792 183.727 192.197C192.915 192.5 202.093 193.071 211.253 193.761C213.037 193.899 213.028 191.129 211.253 191.001C196.464 189.887 181.657 189.105 166.821 189.216C154.537 189.308 142.28 190.016 130.024 190.669C120.836 191.157 111.639 191.599 102.442 191.957C100.668 192.022 100.658 194.791 102.442 194.717Z" fill="#2F2E43"/>
<path d="M102.442 225.942C121.437 225.215 140.45 224.903 159.464 225.013C178.477 225.123 197.176 225.648 216.004 226.595C226.726 227.129 237.43 227.801 248.134 228.61C249.918 228.748 249.908 225.979 248.134 225.85C229.176 224.424 210.19 223.421 191.186 222.833C172.182 222.244 153.474 222.097 134.618 222.345C123.887 222.492 113.155 222.768 102.433 223.182C100.658 223.247 100.649 226.007 102.433 225.942H102.442Z" fill="#2F2E43"/>
</g>
<defs>
<clipPath id="clip0_4_8">
<rect width="618" height="546" fill="white"/>
</clipPath>
</defs>
</svg>
